<svg width="269" height="30" viewBox="0 0 269 30" fill="none" xmlns="http://www.w3.org/2000/svg">
<path d="M0.639999 29V1H13.04C14.7733 1 16.3467 1.4 17.76 2.2C19.1733 2.97334 20.28 4.02667 21.08 5.36C21.9067 6.69334 22.32 8.21334 22.32 9.92C22.32 11.6 21.9067 13.1333 21.08 14.52C20.28 15.88 19.1733 16.96 17.76 17.76C16.3467 18.56 14.7733 18.96 13.04 18.96H6.44V29H0.639999ZM16.52 29L9.4 16.36L15.56 15.36L23.48 29.04L16.52 29ZM6.44 14.08H12.76C13.48 14.08 14.1067 13.92 14.64 13.6C15.2 13.2533 15.6267 12.7867 15.92 12.2C16.2133 11.5867 16.36 10.9067 16.36 10.16C16.36 9.36 16.1867 8.66667 15.84 8.08C15.4933 7.49334 14.9867 7.04 14.32 6.72C13.6533 6.37334 12.88 6.2 12 6.2H6.44V14.08Z" fill="black"/>
<path d="M28.6478 29V1H47.5678V6.28H34.4878V23.72H47.8478V29H28.6478ZM31.4478 17.28V12.16H45.6478V17.28H31.4478Z" fill="black"/>
<path d="M54.0384 29V1H65.9184C67.5718 1 69.0651 1.4 70.3984 2.2C71.7584 2.97334 72.8251 4.04 73.5984 5.4C74.3984 6.76 74.7984 8.29334 74.7984 10C74.7984 11.7333 74.3984 13.2933 73.5984 14.68C72.8251 16.0667 71.7584 17.1733 70.3984 18C69.0651 18.8 67.5718 19.2 65.9184 19.2H60.0384V29H54.0384ZM59.9584 13.8H65.2384C65.8784 13.8 66.4518 13.64 66.9584 13.32C67.4651 12.9733 67.8651 12.52 68.1584 11.96C68.4784 11.4 68.6384 10.76 68.6384 10.04C68.6384 9.32 68.4784 8.69334 68.1584 8.16C67.8651 7.6 67.4651 7.17334 66.9584 6.88C66.4518 6.56 65.8784 6.4 65.2384 6.4H59.9584V13.8Z" fill="black"/>
<path d="M92.5713 29.4C90.5179 29.4 88.6246 29.04 86.8913 28.32C85.1579 27.6 83.6379 26.6 82.3313 25.32C81.0513 24.0133 80.0646 22.48 79.3712 20.72C78.6779 18.9333 78.3313 17 78.3313 14.92C78.3313 12.8133 78.6779 10.8933 79.3712 9.16C80.0646 7.4 81.0513 5.86667 82.3313 4.56C83.6379 3.25334 85.1579 2.24 86.8913 1.52C88.6246 0.800003 90.5179 0.440002 92.5713 0.440002C94.6513 0.440002 96.5446 0.800003 98.2513 1.52C99.9846 2.24 101.491 3.25334 102.771 4.56C104.078 5.86667 105.078 7.4 105.771 9.16C106.465 10.92 106.811 12.84 106.811 14.92C106.811 17 106.465 18.92 105.771 20.68C105.078 22.44 104.078 23.9733 102.771 25.28C101.491 26.5867 99.9846 27.6 98.2513 28.32C96.5446 29.04 94.6513 29.4 92.5713 29.4ZM92.5713 23.72C93.7446 23.72 94.8246 23.5067 95.8112 23.08C96.8246 22.6533 97.6913 22.04 98.4113 21.24C99.1313 20.44 99.6912 19.5067 100.091 18.44C100.518 17.3733 100.731 16.2 100.731 14.92C100.731 13.64 100.518 12.4667 100.091 11.4C99.6912 10.3333 99.1313 9.41334 98.4113 8.64C97.6913 7.84 96.8246 7.22667 95.8112 6.8C94.8246 6.34667 93.7446 6.12 92.5713 6.12C91.3979 6.12 90.3179 6.34667 89.3313 6.8C88.3446 7.22667 87.4779 7.84 86.7312 8.64C85.9846 9.41334 85.4113 10.3333 85.0113 11.4C84.6379 12.4667 84.4512 13.64 84.4512 14.92C84.4512 16.2 84.6379 17.3733 85.0113 18.44C85.4113 19.5067 85.9846 20.44 86.7312 21.24C87.4779 22.04 88.3446 22.6533 89.3313 23.08C90.3179 23.5067 91.3979 23.72 92.5713 23.72Z" fill="black"/>
<path d="M112.242 29V1H124.642C126.375 1 127.948 1.4 129.362 2.2C130.775 2.97334 131.882 4.02667 132.682 5.36C133.508 6.69334 133.922 8.21334 133.922 9.92C133.922 11.6 133.508 13.1333 132.682 14.52C131.882 15.88 130.775 16.96 129.362 17.76C127.948 18.56 126.375 18.96 124.642 18.96H118.042V29H112.242ZM128.122 29L121.002 16.36L127.162 15.36L135.082 29.04L128.122 29ZM118.042 14.08H124.362C125.082 14.08 125.708 13.92 126.242 13.6C126.802 13.2533 127.228 12.7867 127.522 12.2C127.815 11.5867 127.962 10.9067 127.962 10.16C127.962 9.36 127.788 8.66667 127.442 8.08C127.095 7.49334 126.588 7.04 125.922 6.72C125.255 6.37334 124.482 6.2 123.602 6.2H118.042V14.08Z" fill="black"/>
<path d="M136.929 29L147.889 1H153.249L164.169 29H158.009L152.369 13.92C152.209 13.4933 152.009 12.9467 151.769 12.28C151.556 11.6133 151.329 10.9067 151.089 10.16C150.849 9.41334 150.623 8.70667 150.409 8.04C150.196 7.34667 150.036 6.77334 149.929 6.32L151.009 6.28C150.849 6.89334 150.663 7.53334 150.449 8.2C150.263 8.84 150.063 9.50667 149.849 10.2C149.636 10.8667 149.409 11.52 149.169 12.16C148.929 12.8 148.703 13.4267 148.489 14.04L142.849 29H136.929ZM142.009 23.12L143.969 18.28H156.809L158.809 23.12H142.009Z" fill="black"/>
<path d="M168.101 29V1H179.581C181.634 1 183.488 1.34667 185.141 2.04C186.821 2.70667 188.261 3.66667 189.461 4.92C190.688 6.14667 191.621 7.61334 192.261 9.32C192.901 11.0267 193.221 12.92 193.221 15C193.221 17.0533 192.901 18.9467 192.261 20.68C191.621 22.3867 190.701 23.8667 189.501 25.12C188.301 26.3467 186.861 27.3067 185.181 28C183.501 28.6667 181.634 29 179.581 29H168.101ZM174.101 24.64L173.461 23.6H179.381C180.581 23.6 181.661 23.4 182.621 23C183.581 22.5733 184.394 22 185.061 21.28C185.754 20.5333 186.274 19.6267 186.621 18.56C186.968 17.4933 187.141 16.3067 187.141 15C187.141 13.6933 186.968 12.52 186.621 11.48C186.274 10.4133 185.754 9.50667 185.061 8.76C184.394 8.01334 183.581 7.44 182.621 7.04C181.661 6.61334 180.581 6.4 179.381 6.4H173.341L174.101 5.44V24.64Z" fill="black"/>
<path d="M194.547 29L205.507 1H210.867L221.787 29H215.627L209.987 13.92C209.827 13.4933 209.627 12.9467 209.387 12.28C209.173 11.6133 208.947 10.9067 208.707 10.16C208.467 9.41334 208.24 8.70667 208.027 8.04C207.813 7.34667 207.653 6.77334 207.547 6.32L208.627 6.28C208.467 6.89334 208.28 7.53334 208.067 8.2C207.88 8.84 207.68 9.50667 207.467 10.2C207.253 10.8667 207.027 11.52 206.787 12.16C206.547 12.8 206.32 13.4267 206.107 14.04L200.467 29H194.547ZM199.627 23.12L201.587 18.28H214.427L216.427 23.12H199.627Z" fill="black"/>
<path d="M225.718 29V1H238.118C239.851 1 241.425 1.4 242.838 2.2C244.251 2.97334 245.358 4.02667 246.158 5.36C246.985 6.69334 247.398 8.21334 247.398 9.92C247.398 11.6 246.985 13.1333 246.158 14.52C245.358 15.88 244.251 16.96 242.838 17.76C241.425 18.56 239.851 18.96 238.118 18.96H231.518V29H225.718ZM241.598 29L234.478 16.36L240.638 15.36L248.558 29.04L241.598 29ZM231.518 14.08H237.838C238.558 14.08 239.185 13.92 239.718 13.6C240.278 13.2533 240.705 12.7867 240.998 12.2C241.291 11.5867 241.438 10.9067 241.438 10.16C241.438 9.36 241.265 8.66667 240.918 8.08C240.571 7.49334 240.065 7.04 239.398 6.72C238.731 6.37334 237.958 6.2 237.078 6.2H231.518V14.08Z" fill="black"/>
<path d="M257.08 9L259.82 2H261.16L263.89 9H262.35L260.94 5.23C260.9 5.12334 260.85 4.98667 260.79 4.82C260.737 4.65334 260.68 4.47667 260.62 4.29C260.56 4.10334 260.503 3.92667 260.45 3.76C260.397 3.58667 260.357 3.44334 260.33 3.33L260.6 3.32C260.56 3.47334 260.513 3.63334 260.46 3.8C260.413 3.96 260.363 4.12667 260.31 4.3C260.257 4.46667 260.2 4.63 260.14 4.79C260.08 4.95 260.023 5.10667 259.97 5.26L258.56 9H257.08ZM258.35 7.53L258.84 6.32H262.05L262.55 7.53H258.35Z" fill="black"/>
<path d="M264.693 9V7.71H265.863V3.29H264.693V2H268.533V3.29H267.363V7.71H268.533V9H264.693Z" fill="black"/>
<path d="M83 16C83 10.4772 87.4772 6 93 6C98.5228 6 103 10.4772 103 16C103 21.5229 98.5228 26 93 26C87.4772 26 83 21.5229 83 16Z" fill="black"/>
<path d="M83 16C83 10.4772 87.4772 6 93 6C98.5228 6 103 10.4772 103 16C103 21.5229 98.5228 26 93 26C87.4772 26 83 21.5229 83 16Z" fill="black"/>
</svg>
